<?xml version="1.0" encoding="UTF-8" standalone="no"?>
<svg
   xmlns:dc="http://purl.org/dc/elements/1.1/"
   xmlns:cc="http://creativecommons.org/ns#"
   xmlns:rdf="http://www.w3.org/1999/02/22-rdf-syntax-ns#"
   xmlns:svg="http://www.w3.org/2000/svg"
   xmlns="http://www.w3.org/2000/svg"
   xmlns:sodipodi="http://sodipodi.sourceforge.net/DTD/sodipodi-0.dtd"
   xmlns:inkscape="http://www.inkscape.org/namespaces/inkscape"
   id="Ebene_1"
   data-name="Ebene 1"
   viewBox="0 0 187.89999 187.89999"
   version="1.1"
   sodipodi:docname="CodeFor-bonn.svg"
   width="187.89999"
   height="187.89999"
   inkscape:version="0.92.3 (2405546, 2018-03-11)">
  <metadata
     id="metadata145">
    <rdf:RDF>
      <cc:Work
         rdf:about="">
        <dc:format>image/svg+xml</dc:format>
        <dc:type
           rdf:resource="http://purl.org/dc/dcmitype/StillImage" />
        <dc:title>CodeforBonnrheinsieg_logo</dc:title>
      </cc:Work>
    </rdf:RDF>
  </metadata>
  <sodipodi:namedview
     pagecolor="#ffffff"
     bordercolor="#666666"
     borderopacity="1"
     objecttolerance="10"
     gridtolerance="10"
     guidetolerance="10"
     inkscape:pageopacity="0"
     inkscape:pageshadow="2"
     inkscape:window-width="1358"
     inkscape:window-height="845"
     id="namedview143"
     showgrid="false"
     inkscape:zoom="1.6636014"
     inkscape:cx="70.73005"
     inkscape:cy="83.238465"
     inkscape:window-x="86"
     inkscape:window-y="37"
     inkscape:window-maximized="0"
     inkscape:current-layer="Ebene_1" />
  <defs
     id="defs10">
    <style
       id="style2">.cls-1,.cls-5,.cls-7,.cls-8,.cls-9{fill:none;}.cls-2{fill:#37a5de;}.cls-3{clip-path:url(#clip-path);}.cls-4{fill:#fff;}.cls-5,.cls-7,.cls-8,.cls-9{stroke:#fff;stroke-miterlimit:10;}.cls-5,.cls-7{stroke-width:1.91px;}.cls-6{clip-path:url(#clip-path-2);}.cls-7{stroke-linecap:round;}.cls-8{stroke-width:1.8px;}.cls-9{stroke-width:0.99px;}</style>
    <clipPath
       id="clip-path"
       transform="translate(-8.99 -9.49)">
      <rect
         class="cls-1"
         width="136.35001"
         height="155.34"
         id="rect4"
         x="0"
         y="0"
         style="fill:none" />
    </clipPath>
    <clipPath
       id="clip-path-2"
       transform="translate(-8.99 -9.49)">
      <rect
         class="cls-1"
         width="136.35001"
         height="155.34"
         id="rect7"
         x="0"
         y="0"
         style="fill:none" />
    </clipPath>
  </defs>
  <title
     id="title12">CodeforBonnrheinsieg_logo</title>
  <polygon
     class="cls-2"
     points="59.19,0 118.38,34.09 118.38,102.27 59.19,136.36 0,102.27 0,34.09 "
     id="polygon14"
     style="fill:#37a5de"
     transform="translate(34.759997,25.769997)" />
  <g
     class="cls-3"
     clip-path="url(#clip-path)"
     id="g50"
     transform="translate(34.759997,25.769997)">
    <path
       class="cls-4"
       d="M 66,33.26 A 0.82,0.82 0 0 0 65.52,33.1 c -0.28,0 -0.44,0.18 -0.44,0.56 v 0.19 h 1.16 v 0.45 h -1.12 v 2.53 h -0.5 V 34.3 h -0.84 v -0.45 h 0.84 v -0.18 c 0,-0.72 0.35,-1 0.92,-1 a 1.11,1.11 0 0 1 0.62,0.17 z"
       transform="translate(-8.99,-9.49)"
       id="path16"
       inkscape:connector-curvature="0"
       style="fill:#ffffff" />
    <path
       class="cls-4"
       d="M 68.42,33.8 A 1.54,1.54 0 1 1 67,35.34 1.46,1.46 0 0 1 68.47,33.8 m 0,2.63 a 1.1,1.1 0 1 0 -1,-1.09 1,1 0 0 0 1,1.09"
       transform="translate(-8.99,-9.49)"
       id="path18"
       inkscape:connector-curvature="0"
       style="fill:#ffffff" />
    <path
       class="cls-4"
       d="M 72.77,34.8 A 0.53,0.53 0 0 0 72.2,34.26 c -0.52,0 -1,0.49 -1,1.5 v 1.08 h -0.49 v -3 h 0.49 v 0.55 a 1.26,1.26 0 0 1 1.1,-0.6 0.93,0.93 0 0 1 1,1 z"
       transform="translate(-8.99,-9.49)"
       id="path20"
       inkscape:connector-curvature="0"
       style="fill:#ffffff" />
    <polygon
       class="cls-4"
       points="56.34,14.33 55.54,14.33 55.54,14.43 55.54,20.72 56.07,20.72 56.22,20.72 56.34,20.72 "
       id="polygon22"
       style="fill:#ffffff" />
    <path
       class="cls-4"
       d="m 67.7,30.8 c 0.06,0 0.13,0 0.13,-0.1 v -7.48 c 0,-0.05 -0.07,-0.1 -0.13,-0.1 h -2.5 c -0.05,0 -0.07,0 -0.07,0.05 v 0.65 c 0,0.05 0,0.1 0.07,0.1 h 1.7 c 0.06,0 0.13,0 0.13,0.1 v 5.88 c 0,0.06 -0.07,0.1 -0.13,0.1 h -1.7 c -0.05,0 -0.07,0 -0.07,0 v 0.65 c 0,0.05 0,0.1 0.07,0.1 z"
       transform="translate(-8.99,-9.49)"
       id="path24"
       inkscape:connector-curvature="0"
       style="fill:#ffffff" />
    <polygon
       class="cls-4"
       points="59.84,20.72 60.51,20.72 60.63,20.72 60.63,14.33 59.84,14.33 59.84,14.43 "
       id="polygon26"
       style="fill:#ffffff" />
    <path
       class="cls-4"
       d="M 69.52,30.8 V 30 c 1.1,0 1.86,-1.36 1.86,-3 0,-1.64 -0.76,-3 -1.86,-3 v -0.8 c 1.5,0 2.66,1.72 2.66,3.84 0,2.12 -1.18,3.76 -2.66,3.76"
       transform="translate(-8.99,-9.49)"
       id="path28"
       inkscape:connector-curvature="0"
       style="fill:#ffffff" />
    <path
       class="cls-4"
       d="m 61.24,28.35 v 1.45 a 0.94,0.94 0 0 0 1,1 h 1.24 c 0,0 0.07,0 0.07,-0.1 v -0.6 c 0,-0.05 -0.07,-0.1 -0.12,-0.1 h -1 C 62.17,30 62.1,29.89 62.1,29.6 v -1.72 c 0,-0.6 -0.24,-0.82 -0.54,-0.93 0.3,-0.11 0.54,-0.33 0.54,-0.93 V 24.3 c 0,-0.29 0.06,-0.38 0.33,-0.38 h 1.1 a 0.1,0.1 0 0 0 0.07,-0.1 v -0.6 c 0,-0.05 -0.07,-0.1 -0.12,-0.1 h -1.26 a 0.92,0.92 0 0 0 -1,1 v 1.62 c 0,0 0,0.3 0,0.4 a 0.67,0.67 0 0 1 -0.57,0.5 h -0.31 c -0.06,0 -0.08,0 -0.08,0.1 v 0.6 c 0,0.06 0,0.1 0.08,0.1 h 0.28 a 0.63,0.63 0 0 1 0.62,0.54 c 0,0.1 0,0.39 0,0.39"
       transform="translate(-8.99,-9.49)"
       id="path30"
       inkscape:connector-curvature="0"
       style="fill:#ffffff" />
    <path
       class="cls-4"
       d="m 65.2,23.12 h -0.6 c -0.06,0 -0.08,0 -0.08,0.1 v 0.7 h 0.8 v -0.8 z"
       transform="translate(-8.99,-9.49)"
       id="path32"
       inkscape:connector-curvature="0"
       style="fill:#ffffff" />
    <path
       class="cls-4"
       d="m 64.53,30.1 v 0.6 c 0,0.05 0,0.1 0.07,0.1 h 0.72 V 30 h -0.8 z"
       transform="translate(-8.99,-9.49)"
       id="path34"
       inkscape:connector-curvature="0"
       style="fill:#ffffff" />
    <path
       class="cls-4"
       d="m 69.49,23.12 h -0.6 c -0.06,0 -0.07,0 -0.07,0.1 v 0.7 h 0.8 v -0.8 z"
       transform="translate(-8.99,-9.49)"
       id="path36"
       inkscape:connector-curvature="0"
       style="fill:#ffffff" />
    <path
       class="cls-4"
       d="m 68.82,30.1 v 0.6 c 0,0.05 0,0.1 0.07,0.1 h 0.73 V 30 h -0.8 z"
       transform="translate(-8.99,-9.49)"
       id="path38"
       inkscape:connector-curvature="0"
       style="fill:#ffffff" />
    <path
       class="cls-4"
       d="m 73.81,28.35 v 1.45 a 0.93,0.93 0 0 0 1,1 H 76 a 0.12,0.12 0 0 0 0.08,-0.1 v -0.6 c 0,-0.05 -0.07,-0.1 -0.13,-0.1 h -1 c -0.26,0 -0.32,-0.11 -0.32,-0.4 v -1.72 a 1.17,1.17 0 0 0 -0.1,-0.47 h -1.36 c 0.37,0.1 0.53,0.23 0.6,0.55 a 2.33,2.33 0 0 1 0,0.38"
       transform="translate(-8.99,-9.49)"
       id="path40"
       inkscape:connector-curvature="0"
       style="fill:#ffffff" />
    <path
       class="cls-4"
       d="m 73.76,26.12 a 0.73,0.73 0 0 1 -0.56,0.5 h 1.26 a 1.41,1.41 0 0 0 0.15,-0.6 V 24.3 c 0,-0.29 0.05,-0.38 0.32,-0.38 H 76 a 0.11,0.11 0 0 0 0.08,-0.1 v -0.6 c 0,-0.05 -0.08,-0.1 -0.13,-0.1 h -1.16 a 0.92,0.92 0 0 0 -1,1 v 1.62 a 2.77,2.77 0 0 1 -0.06,0.4"
       transform="translate(-8.99,-9.49)"
       id="path42"
       inkscape:connector-curvature="0"
       style="fill:#ffffff" />
    <path
       class="cls-4"
       d="m 74,27 a 1.11,1.11 0 0 1 0.56,0.39 H 76 c 0.06,0 0.13,0 0.13,-0.1 v -0.6 c 0,-0.05 -0.08,-0.1 -0.13,-0.1 H 74.46 A 1,1 0 0 1 74,27"
       transform="translate(-8.99,-9.49)"
       id="path44"
       inkscape:connector-curvature="0"
       style="fill:#ffffff" />
    <path
       class="cls-4"
       d="m 72.88,26.61 c -0.06,0 -0.07,0 -0.07,0.1 v 0.6 c 0,0.05 0,0.1 0.07,0.1 h 1.63 A 0.87,0.87 0 0 0 74,27 0.79,0.79 0 0 0 74.42,26.6 h -1.54 z"
       transform="translate(-8.99,-9.49)"
       id="path46"
       inkscape:connector-curvature="0"
       style="fill:#ffffff" />
    <polygon
       class="cls-5"
       points="5.92,98.98 5.92,37.38 59.19,6.57 112.46,37.38 112.46,98.98 59.19,129.79 "
       id="polygon48"
       style="fill:none;stroke:#ffffff;stroke-width:1.90999997px;stroke-miterlimit:10" />
  </g>
  <g
     class="cls-6"
     clip-path="url(#clip-path-2)"
     id="g140"
     transform="translate(34.759997,25.769997)">
    <path
       class="cls-5"
       d="m 66.62,98.31 c 0.46,1.15 -0.51,-3.85 -2.79,-4.28 h -6 A 3.45,3.45 0 0 1 55.64,93.22 L 41.88,80.68 a 3.23,3.23 0 0 0 -4.61,0.24 c -0.16,0.24 -0.32,0.4 -0.48,0.65 l -18.48,28.52"
       transform="translate(-8.99,-9.49)"
       id="path52"
       inkscape:connector-curvature="0"
       style="fill:none;stroke:#ffffff;stroke-width:1.90999997px;stroke-miterlimit:10" />
    <path
       class="cls-5"
       d="M 86.84,69.38 72.68,43.12 a 3.24,3.24 0 0 0 -4.37,-1.46 3.17,3.17 0 0 0 -1.46,1.46 L 54.39,67.34 a 3.2,3.2 0 0 1 -2.91,1.94 L 28.85,68.42 a 3.28,3.28 0 0 0 -3.16,2.43 L 14.91,91.43"
       transform="translate(-8.99,-9.49)"
       id="path54"
       inkscape:connector-curvature="0"
       style="fill:none;stroke:#ffffff;stroke-width:1.90999997px;stroke-miterlimit:10" />
    <path
       class="cls-7"
       d="M 41.8,62.63 51.43,43.45 A 3.24,3.24 0 0 1 55.8,42 a 1.7,1.7 0 0 1 0.48,0.32 l 3.32,2.51"
       transform="translate(-8.99,-9.49)"
       id="path56"
       inkscape:connector-curvature="0"
       style="fill:none;stroke:#ffffff;stroke-width:1.90999997px;stroke-linecap:round;stroke-miterlimit:10" />
    <path
       class="cls-5"
       d="m 62.11,53.14 2.72,2.72 a 1.56,1.56 0 0 0 2.26,0 l 2.59,-2.59 a 1.56,1.56 0 0 1 2.26,0 l 2.59,2.59 a 1.57,1.57 0 0 0 2.27,0 l 1.72,-1.72"
       transform="translate(-8.99,-9.49)"
       id="path58"
       inkscape:connector-curvature="0"
       style="fill:none;stroke:#ffffff;stroke-width:1.90999997px;stroke-miterlimit:10" />
    <line
       class="cls-5"
       x1="35.799999"
       y1="94.120003"
       x2="35.799999"
       y2="94.120003"
       id="line60"
       style="fill:none;stroke:#ffffff;stroke-width:1.90999997px;stroke-miterlimit:10" />
    <path
       class="cls-8"
       d="m 106.47,44.7 h 1.44 a 3.73,3.73 0 0 1 0,7.44 H 93.25 a 1.77,1.77 0 0 1 -1.78,-1.83 1.8,1.8 0 0 1 1.78,-1.83 h 0.33 a 3.65,3.65 0 0 1 3.56,-3.72 h 0.72 A 3.65,3.65 0 0 1 101.41,41 h 1.45 a 3.58,3.58 0 0 1 3.61,3.7 z"
       transform="translate(-8.99,-9.49)"
       id="path62"
       inkscape:connector-curvature="0"
       style="fill:none;stroke:#ffffff;stroke-width:1.79999995px;stroke-miterlimit:10" />
    <path
       class="cls-4"
       d="m 72.84,93.43 h -3 a 1,1 0 0 1 0,-2 h 3 a 1,1 0 1 1 0,2"
       transform="translate(-8.99,-9.49)"
       id="path64"
       inkscape:connector-curvature="0"
       style="fill:#ffffff" />
    <path
       class="cls-4"
       d="m 83.36,73.84 a 0.93,0.93 0 0 1 0,-1.86 v 0 a 0.93,0.93 0 1 1 0,1.86"
       transform="translate(-8.99,-9.49)"
       id="path66"
       inkscape:connector-curvature="0"
       style="fill:#ffffff" />
    <path
       class="cls-4"
       d="M 68.48,68.26 A 0.93,0.93 0 0 1 67.57,67.51 C 66.73,63.3 61.51,59.77 61.46,59.73 a 0.93,0.93 0 0 1 1,-1.55 c 0.24,0.16 5.91,4 6.9,9 a 0.93,0.93 0 0 1 -0.73,1.09 h -0.18"
       transform="translate(-8.99,-9.49)"
       id="path68"
       inkscape:connector-curvature="0"
       style="fill:#ffffff" />
    <path
       class="cls-4"
       d="m 94.48,123.73 h -0.22 a 0.93,0.93 0 0 1 -0.69,-1.12 C 98.05,103.85 83.75,84.87 83.62,84.74 a 0.93,0.93 0 0 1 1.32,-1.31 c 0.13,0.13 15.17,19.81 10.44,39.61 a 0.93,0.93 0 0 1 -0.9,0.71"
       transform="translate(-8.99,-9.49)"
       id="path70"
       inkscape:connector-curvature="0"
       style="fill:#ffffff" />
    <path
       class="cls-4"
       d="m 68.48,87.78 h -3.72 a 0.93,0.93 0 1 1 0,-1.86 h 3.72 a 0.93,0.93 0 1 1 0,1.86"
       transform="translate(-8.99,-9.49)"
       id="path72"
       inkscape:connector-curvature="0"
       style="fill:#ffffff" />
    <path
       class="cls-4"
       d="M 97.3,85 H 97.13 L 82.25,82.19 a 0.93065837,0.93065837 0 0 1 0.34,-1.83 l 14.41,2.7 1.33,-1.33 1.39,-5.54 -1.18,0.39 a 0.93,0.93 0 0 1 -0.73,-0.06 l -15.6,-8.26 h -2.58 a 0.94,0.94 0 0 1 -0.4,-0.09 L 61.57,59.81 a 0.93037627,0.93037627 0 0 1 0.8,-1.68 l 17.47,8.27 h 2.58 a 0.93,0.93 0 0 1 0.43,0.11 l 15.45,8.18 2.41,-0.8 a 0.93,0.93 0 0 1 1.21,1.11 l -1.86,7.44 a 0.93,0.93 0 0 1 -0.24,0.43 L 98,84.72 a 0.94,0.94 0 0 1 -0.66,0.27"
       transform="translate(-8.99,-9.49)"
       id="path74"
       inkscape:connector-curvature="0"
       style="fill:#ffffff" />
    <path
       class="cls-4"
       d="M 70.34,68.26 H 61 a 0.93,0.93 0 1 1 0,-1.86 h 9.3 a 0.93,0.93 0 1 1 0,1.86"
       transform="translate(-8.99,-9.49)"
       id="path76"
       inkscape:connector-curvature="0"
       style="fill:#ffffff" />
    <path
       class="cls-4"
       d="m 65.69,75.7 h -7.44 a 0.93,0.93 0 0 1 0,-1.86 h 7.44 a 0.93,0.93 0 1 1 0,1.86"
       transform="translate(-8.99,-9.49)"
       id="path78"
       inkscape:connector-curvature="0"
       style="fill:#ffffff" />
    <path
       class="cls-4"
       d="M 67.55,82.21 H 61 a 0.93,0.93 0 1 1 0,-1.86 h 6.51 a 0.93,0.93 0 1 1 0,1.86"
       transform="translate(-8.99,-9.49)"
       id="path80"
       inkscape:connector-curvature="0"
       style="fill:#ffffff" />
    <path
       class="cls-4"
       d="m 64.76,87.78 h -0.23 a 0.93,0.93 0 0 1 -0.68,-1.13 c 0.07,-0.29 0.57,-3 -3.16,-4.49 a 0.93126258,0.93126258 0 1 1 0.69,-1.73 c 4.27,1.71 4.67,5.11 4.28,6.67 a 0.93,0.93 0 0 1 -0.9,0.7"
       transform="translate(-8.99,-9.49)"
       id="path82"
       inkscape:connector-curvature="0"
       style="fill:#ffffff" />
    <path
       class="cls-4"
       d="m 61,82.21 h -0.23 a 0.93,0.93 0 0 1 -0.68,-1.13 5.58,5.58 0 0 0 -2.44,-5.54 0.96400207,0.96400207 0 0 1 1.16,-1.54 7.39,7.39 0 0 1 3.13,7.48 0.93,0.93 0 0 1 -0.9,0.71"
       transform="translate(-8.99,-9.49)"
       id="path84"
       inkscape:connector-curvature="0"
       style="fill:#ffffff" />
    <path
       class="cls-4"
       d="m 58.25,75.7 a 0.93,0.93 0 0 1 -0.37,-1.78 c 0.78,-0.34 2.9,-1.57 3.31,-3.2 a 3.21,3.21 0 0 0 -0.87,-2.8 0.93,0.93 0 0 1 1.45,-1.16 5,5 0 0 1 1.23,4.41 c -0.72,2.85 -4.22,4.39 -4.37,4.45 a 0.93,0.93 0 0 1 -0.36,0.07"
       transform="translate(-8.99,-9.49)"
       id="path86"
       inkscape:connector-curvature="0"
       style="fill:#ffffff" />
    <path
       class="cls-4"
       d="m 84.28,85 a 0.93,0.93 0 0 1 -0.93,-0.93 v -2.46 a 0.93,0.93 0 0 1 1.86,0 v 2.46 A 0.93,0.93 0 0 1 84.28,85"
       transform="translate(-8.99,-9.49)"
       id="path88"
       inkscape:connector-curvature="0"
       style="fill:#ffffff" />
    <path
       class="cls-4"
       d="m 53.37,130.64 a 1.35,1.35 0 0 1 -0.84,-0.3 0.93,0.93 0 0 1 0,-1.31 c 4.21,-4 22.26,-26.53 17.86,-36.21 A 0.95273291,0.95273291 0 0 1 72.11,92 c 4.83,10.63 -13.7,34 -18.27,38.32 -0.18,0.17 -0.24,0.27 -0.47,0.27"
       transform="translate(-8.99,-9.49)"
       id="path90"
       inkscape:connector-curvature="0"
       style="fill:#ffffff" />
    <path
       class="cls-4"
       d="m 69.41,93.36 a 0.93,0.93 0 0 1 -0.93,-0.93 c 0,-2.56 -1.67,-4.65 -3.72,-4.65 a 0.93,0.93 0 1 1 0,-1.86 c 3.08,0 5.58,2.92 5.58,6.51 a 0.93,0.93 0 0 1 -0.93,0.93"
       transform="translate(-8.99,-9.49)"
       id="path92"
       inkscape:connector-curvature="0"
       style="fill:#ffffff" />
    <path
       class="cls-4"
       d="m 93.63,110.09 h -3.71 a 0.93,0.93 0 1 1 0,-1.86 h 3.71 a 0.93,0.93 0 1 1 0,1.86"
       transform="translate(-8.99,-9.49)"
       id="path94"
       inkscape:connector-curvature="0"
       style="fill:#ffffff" />
    <path
       class="cls-4"
       d="m 93.35,104.52 h -3.77 a 0.93,0.93 0 0 1 0,-1.86 h 3.77 a 0.93,0.93 0 1 1 0,1.86"
       transform="translate(-8.99,-9.49)"
       id="path96"
       inkscape:connector-curvature="0"
       style="fill:#ffffff" />
    <path
       class="cls-4"
       d="m 112.64,84.07 a 0.93,0.93 0 1 1 0,-1.86 1.395,1.395 0 1 0 0,-2.79 0.93,0.93 0 0 1 0,-1.86 3.255,3.255 0 1 1 0,6.51"
       transform="translate(-8.99,-9.49)"
       id="path98"
       inkscape:connector-curvature="0"
       style="fill:#ffffff" />
    <path
       class="cls-4"
       d="m 112.64,84.07 h -0.18 l -9.76,-1.86 a 0.93158467,0.93158467 0 1 1 0.35,-1.83 l 9.76,1.86 a 0.93,0.93 0 0 1 -0.17,1.84"
       transform="translate(-8.99,-9.49)"
       id="path100"
       inkscape:connector-curvature="0"
       style="fill:#ffffff" />
    <path
       class="cls-4"
       d="m 107.53,86.85 h -0.18 l -4.65,-0.93 a 0.93,0.93 0 1 1 0.36,-1.82 l 4.65,0.93 a 0.93,0.93 0 0 1 -0.18,1.84"
       transform="translate(-8.99,-9.49)"
       id="path102"
       inkscape:connector-curvature="0"
       style="fill:#ffffff" />
    <line
       class="cls-5"
       x1="81.449997"
       y1="73.370003"
       x2="95.43"
       y2="108.83"
       id="line104"
       style="fill:none;stroke:#ffffff;stroke-width:1.90999997px;stroke-miterlimit:10" />
    <rect
       class="cls-4"
       x="18.34"
       y="88.059998"
       width="81.360001"
       height="15.06"
       id="rect106"
       style="fill:#ffffff" />
    <rect
       class="cls-9"
       x="18.34"
       y="88.059998"
       width="81.360001"
       height="15.06"
       id="rect108"
       style="fill:none;stroke:#ffffff;stroke-width:0.99000001px;stroke-miterlimit:10" />
    <path
       class="cls-2"
       d="m 32.65,101.29 a 1.74,1.74 0 0 1 2,1.83 1.61,1.61 0 0 1 -0.71,1.35 1.84,1.84 0 0 1 1.06,1.76 2,2 0 0 1 -2.2,2.06 h -2.6 v -7 z m -1.38,1 v 1.72 h 1.28 c 0.62,0 1,-0.29 1,-0.86 0,-0.57 -0.34,-0.86 -1,-0.86 z m 0,2.76 v 2.16 h 1.35 c 0.81,0 1.23,-0.38 1.23,-1.08 0,-0.7 -0.42,-1.08 -1.23,-1.08 z"
       transform="translate(-8.99,-9.49)"
       id="path110"
       inkscape:connector-curvature="0"
       style="fill:#37a5de" />
    <path
       class="cls-2"
       d="m 38.32,103.17 a 2.6,2.6 0 1 1 -2.48,2.6 2.43,2.43 0 0 1 2.48,-2.6 m 0,4.28 a 1.71,1.71 0 1 0 -1.38,-1.68 1.5,1.5 0 0 0 1.38,1.68"
       transform="translate(-8.99,-9.49)"
       id="path112"
       inkscape:connector-curvature="0"
       style="fill:#37a5de" />
    <path
       class="cls-2"
       d="m 42.94,103.25 v 0.86 a 1.88,1.88 0 0 1 1.63,-0.94 1.38,1.38 0 0 1 1.48,1.51 v 3.61 H 45 V 105 c 0,-0.68 -0.31,-0.92 -0.78,-0.92 -0.65,0 -1.29,0.77 -1.29,2.16 v 2 h -1 v -5 z"
       transform="translate(-8.99,-9.49)"
       id="path114"
       inkscape:connector-curvature="0"
       style="fill:#37a5de" />
    <path
       class="cls-2"
       d="m 48.4,103.25 v 0.86 a 1.88,1.88 0 0 1 1.63,-0.94 1.38,1.38 0 0 1 1.48,1.51 v 3.61 h -1 V 105 c 0,-0.68 -0.31,-0.92 -0.78,-0.92 -0.65,0 -1.29,0.77 -1.29,2.16 v 2 h -1 v -5 z"
       transform="translate(-8.99,-9.49)"
       id="path116"
       inkscape:connector-curvature="0"
       style="fill:#37a5de" />
    <rect
       class="cls-2"
       x="43.950001"
       y="95.169998"
       width="3.53"
       height="0.92000002"
       id="rect118"
       style="fill:#37a5de" />
    <path
       class="cls-2"
       d="m 61.19,105.07 2,3.22 h -1.3 l -2,-3.14 h -0.81 v 3.14 H 58 v -7 h 2.45 a 1.84,1.84 0 0 1 2.07,1.93 1.76,1.76 0 0 1 -1.36,1.85 m 0.24,-1.85 a 0.82,0.82 0 0 0 -0.92,-0.89 h -1.35 v 1.78 h 1.38 a 0.82,0.82 0 0 0 0.92,-0.89"
       transform="translate(-8.99,-9.49)"
       id="path120"
       inkscape:connector-curvature="0"
       style="fill:#37a5de" />
    <path
       class="cls-2"
       d="m 65,101.21 v 2.9 a 2.06,2.06 0 0 1 1.7,-0.94 1.37,1.37 0 0 1 1.49,1.57 v 3.55 h -1 V 105 c 0,-0.77 -0.32,-0.92 -0.79,-0.92 -0.47,0 -1.36,0.73 -1.36,2.07 v 2.13 h -1 v -7.08 z"
       transform="translate(-8.99,-9.49)"
       id="path122"
       inkscape:connector-curvature="0"
       style="fill:#37a5de" />
    <path
       class="cls-2"
       d="m 73.86,106.06 h -3.57 a 1.26,1.26 0 0 0 1.25,1.39 1.45,1.45 0 0 0 1.32,-0.85 l 0.89,0.35 a 2.21,2.21 0 0 1 -2.21,1.42 2.61,2.61 0 0 1 0,-5.2 2.3,2.3 0 0 1 2.32,2.44 z m -3.55,-0.87 h 2.45 a 1.21,1.21 0 0 0 -1.22,-1.1 1.22,1.22 0 0 0 -1.23,1.1"
       transform="translate(-8.99,-9.49)"
       id="path124"
       inkscape:connector-curvature="0"
       style="fill:#37a5de" />
    <path
       class="cls-2"
       d="m 75.5,101.1 a 0.72,0.72 0 0 1 0.72,0.73 0.72,0.72 0 0 1 -1.44,0 0.72,0.72 0 0 1 0.72,-0.73 m 0.52,7.19 H 75 v -5 h 1 z"
       transform="translate(-8.99,-9.49)"
       id="path126"
       inkscape:connector-curvature="0"
       style="fill:#37a5de" />
    <path
       class="cls-2"
       d="m 78.36,103.25 v 0.86 a 1.87,1.87 0 0 1 1.63,-0.94 1.38,1.38 0 0 1 1.48,1.51 v 3.61 h -1 V 105 c 0,-0.68 -0.31,-0.92 -0.78,-0.92 -0.65,0 -1.29,0.77 -1.29,2.16 v 2 h -1 v -5 z"
       transform="translate(-8.99,-9.49)"
       id="path128"
       inkscape:connector-curvature="0"
       style="fill:#37a5de" />
    <rect
       class="cls-2"
       x="73.910004"
       y="95.169998"
       width="3.53"
       height="0.92000002"
       id="rect130"
       style="fill:#37a5de" />
    <path
       class="cls-2"
       d="m 90.7,103 a 1.19,1.19 0 0 0 -1,-0.77 0.72,0.72 0 0 0 -0.73,0.76 c 0,1.38 3,1.11 3,3.27 a 2.07,2.07 0 0 1 -2.19,2.13 2.33,2.33 0 0 1 -2.31,-1.95 l 0.9,-0.57 c 0.2,0.78 0.61,1.48 1.41,1.48 a 1,1 0 0 0 1.07,-1.05 c 0,-1.37 -3,-1.07 -3,-3.23 a 1.8,1.8 0 0 1 1.83,-1.84 2.11,2.11 0 0 1 1.93,1.18 z"
       transform="translate(-8.99,-9.49)"
       id="path132"
       inkscape:connector-curvature="0"
       style="fill:#37a5de" />
    <path
       class="cls-2"
       d="m 93.53,101.1 a 0.72,0.72 0 0 1 0.72,0.73 0.72,0.72 0 0 1 -1.44,0 0.72,0.72 0 0 1 0.72,-0.73 m 0.52,7.19 H 93 v -5 h 1 z"
       transform="translate(-8.99,-9.49)"
       id="path134"
       inkscape:connector-curvature="0"
       style="fill:#37a5de" />
    <path
       class="cls-2"
       d="m 99.79,106.06 h -3.57 a 1.26,1.26 0 0 0 1.25,1.39 1.45,1.45 0 0 0 1.32,-0.85 l 0.89,0.35 a 2.21,2.21 0 0 1 -2.21,1.42 2.61,2.61 0 0 1 0,-5.2 2.3,2.3 0 0 1 2.32,2.44 z m -3.55,-0.87 h 2.45 a 1.21,1.21 0 0 0 -1.22,-1.1 1.22,1.22 0 0 0 -1.23,1.1"
       transform="translate(-8.99,-9.49)"
       id="path136"
       inkscape:connector-curvature="0"
       style="fill:#37a5de" />
    <path
       class="cls-2"
       d="m 102.81,103.17 a 2,2 0 0 1 0.92,0.22 l 0.93,-0.5 0.42,0.75 -0.68,0.38 a 1.64,1.64 0 0 1 0.22,0.84 1.66,1.66 0 0 1 -1.81,1.69 2.25,2.25 0 0 1 -0.81,-0.15 0.48,0.48 0 0 0 -0.27,0.44 c 0,0.27 0.17,0.39 0.52,0.39 h 1.11 c 1,0 1.67,0.49 1.67,1.44 0,1.25 -1.08,1.74 -2.21,1.74 -1.13,0 -2.22,-0.56 -2.22,-1.66 a 1.36,1.36 0 0 1 0.43,-1 1.07,1.07 0 0 1 -0.29,-0.79 1.15,1.15 0 0 1 0.61,-1 1.64,1.64 0 0 1 -0.34,-1.06 1.66,1.66 0 0 1 1.8,-1.69 m -0.48,4.94 a 3.93,3.93 0 0 1 -0.51,0 0.83,0.83 0 0 0 -0.22,0.61 c 0,0.5 0.45,0.82 1.22,0.82 0.77,0 1.15,-0.27 1.15,-0.76 0,-0.49 -0.34,-0.64 -0.83,-0.64 z m 0.48,-2.43 a 0.82,0.82 0 1 0 -0.79,-0.82 0.77,0.77 0 0 0 0.79,0.82"
       transform="translate(-8.99,-9.49)"
       id="path138"
       inkscape:connector-curvature="0"
       style="fill:#37a5de" />
  </g>
</svg>
